<svg width="20" height="19" viewBox="0 0 20 19" fill="none" xmlns="http://www.w3.org/2000/svg">
<g clip-path="url(#clip0)">
<path d="M10 11.5234C11.3807 11.5234 12.5 10.4916 12.5 9.21875C12.5 7.94591 11.3807 6.91406 10 6.91406C8.61929 6.91406 7.5 7.94591 7.5 9.21875C7.5 10.4916 8.61929 11.5234 10 11.5234Z" stroke="#D1D1D1" stroke-linecap="round" stroke-linejoin="round"/>
<path d="M16.1666 11.5235C16.0557 11.7552 16.0226 12.0122 16.0716 12.2614C16.1206 12.5106 16.2495 12.7406 16.4416 12.9216L16.4916 12.9677C16.6465 13.1104 16.7695 13.2799 16.8533 13.4664C16.9372 13.6529 16.9804 13.8529 16.9804 14.0548C16.9804 14.2567 16.9372 14.4566 16.8533 14.6431C16.7695 14.8297 16.6465 14.9991 16.4916 15.1418C16.3368 15.2847 16.153 15.398 15.9507 15.4753C15.7483 15.5526 15.5314 15.5924 15.3124 15.5924C15.0934 15.5924 14.8765 15.5526 14.6742 15.4753C14.4719 15.398 14.288 15.2847 14.1332 15.1418L14.0833 15.0957C13.8869 14.9186 13.6374 14.7998 13.3671 14.7546C13.0967 14.7094 12.8179 14.7399 12.5666 14.8422C12.3201 14.9396 12.1099 15.1013 11.9618 15.3074C11.8138 15.5135 11.7343 15.755 11.7333 16.0022V16.1328C11.7333 16.5403 11.5577 16.9311 11.2451 17.2193C10.9325 17.5074 10.5086 17.6693 10.0666 17.6693C9.62456 17.6693 9.20063 17.5074 8.88807 17.2193C8.57551 16.9311 8.39992 16.5403 8.39992 16.1328V16.0637C8.39347 15.8094 8.30418 15.5628 8.14368 15.3559C7.98317 15.149 7.75886 14.9915 7.49992 14.9037C7.24857 14.8014 6.96976 14.7709 6.69943 14.8161C6.4291 14.8613 6.17965 14.9801 5.98325 15.1572L5.93325 15.2033C5.77846 15.3461 5.59465 15.4595 5.39232 15.5368C5.18999 15.6141 4.97311 15.6539 4.75408 15.6539C4.53506 15.6539 4.31818 15.6141 4.11585 15.5368C3.91352 15.4595 3.72971 15.3461 3.57492 15.2033C3.41996 15.0606 3.29703 14.8911 3.21315 14.7046C3.12928 14.5181 3.08611 14.3181 3.08611 14.1162C3.08611 13.9143 3.12928 13.7144 3.21315 13.5279C3.29703 13.3413 3.41996 13.1719 3.57492 13.0292L3.62492 12.9831C3.81703 12.802 3.94591 12.5721 3.99492 12.3229C4.04394 12.0737 4.01085 11.8166 3.89992 11.5849C3.79428 11.3577 3.61888 11.1639 3.39531 11.0274C3.17173 10.8909 2.90974 10.8177 2.64159 10.8167H2.49992C2.05789 10.8167 1.63397 10.6548 1.32141 10.3667C1.00885 10.0785 0.833252 9.68772 0.833252 9.28023C0.833252 8.87273 1.00885 8.48193 1.32141 8.19379C1.63397 7.90565 2.05789 7.74377 2.49992 7.74377H2.57492C2.85075 7.73782 3.11826 7.65551 3.34267 7.50755C3.56708 7.35958 3.73801 7.1528 3.83325 6.91408C3.94418 6.68237 3.97727 6.42534 3.92826 6.17613C3.87924 5.92692 3.75037 5.69696 3.55825 5.51591L3.50825 5.46981C3.35329 5.32712 3.23036 5.15766 3.14649 4.97114C3.06261 4.78462 3.01944 4.58468 3.01944 4.38277C3.01944 4.18085 3.06261 3.98092 3.14649 3.7944C3.23036 3.60787 3.35329 3.43842 3.50825 3.29572C3.66304 3.15287 3.84685 3.03954 4.04918 2.96222C4.25151 2.8849 4.46839 2.8451 4.68742 2.8451C4.90644 2.8451 5.12332 2.8849 5.32565 2.96222C5.52798 3.03954 5.7118 3.15287 5.86658 3.29572L5.91658 3.34182C6.11298 3.51892 6.36243 3.63773 6.63276 3.68291C6.90309 3.7281 7.1819 3.6976 7.43325 3.59533H7.49992C7.74639 3.49795 7.9566 3.33625 8.10466 3.13014C8.25272 2.92403 8.33218 2.68251 8.33325 2.43531V2.30471C8.33325 1.89721 8.50885 1.50641 8.82141 1.21827C9.13397 0.930126 9.55789 0.76825 9.99992 0.76825C10.4419 0.76825 10.8659 0.930126 11.1784 1.21827C11.491 1.50641 11.6666 1.89721 11.6666 2.30471V2.37385C11.6677 2.62105 11.7471 2.86258 11.8952 3.06869C12.0432 3.27479 12.2534 3.43649 12.4999 3.53387C12.7513 3.63614 13.0301 3.66664 13.3004 3.62146C13.5707 3.57627 13.8202 3.45746 14.0166 3.28036L14.0666 3.23427C14.2214 3.09141 14.4052 2.97808 14.6075 2.90076C14.8098 2.82344 15.0267 2.78364 15.2458 2.78364C15.4648 2.78364 15.6817 2.82344 15.884 2.90076C16.0863 2.97808 16.2701 3.09141 16.4249 3.23427C16.5799 3.37696 16.7028 3.54641 16.7867 3.73294C16.8706 3.91946 16.9137 4.11939 16.9137 4.32131C16.9137 4.52322 16.8706 4.72316 16.7867 4.90968C16.7028 5.0962 16.5799 5.26566 16.4249 5.40835L16.3749 5.45445C16.1828 5.6355 16.0539 5.86546 16.0049 6.11467C15.9559 6.36388 15.989 6.62091 16.0999 6.85262V6.91408C16.2056 7.1413 16.381 7.33509 16.6045 7.47158C16.8281 7.60808 17.0901 7.68133 17.3583 7.68231H17.4999C17.9419 7.68231 18.3659 7.84419 18.6784 8.13233C18.991 8.42047 19.1666 8.81128 19.1666 9.21877C19.1666 9.62626 18.991 10.0171 18.6784 10.3052C18.3659 10.5934 17.9419 10.7552 17.4999 10.7552H17.4249C17.1568 10.7562 16.8948 10.8295 16.6712 10.966C16.4476 11.1025 16.2722 11.2962 16.1666 11.5235V11.5235Z" stroke="#D1D1D1" stroke-linecap="round" stroke-linejoin="round"/>
</g>
<defs>
<clipPath id="clip0">
<rect width="20" height="18.4375" fill="white"/>
</clipPath>
</defs>
</svg>
