<svg width="20" height="19" viewBox="0 0 20 19" fill="none" xmlns="http://www.w3.org/2000/svg">
<path d="M14.1666 16.1328V14.5964C14.1666 13.7814 13.8154 12.9998 13.1903 12.4235C12.5652 11.8472 11.7173 11.5234 10.8333 11.5234H4.16659C3.28253 11.5234 2.43468 11.8472 1.80956 12.4235C1.18444 12.9998 0.833252 13.7814 0.833252 14.5964V16.1328" stroke="#D1D1D1" stroke-linecap="round" stroke-linejoin="round"/>
<path d="M7.50008 8.45052C9.34103 8.45052 10.8334 7.07473 10.8334 5.3776C10.8334 3.68048 9.34103 2.30469 7.50008 2.30469C5.65913 2.30469 4.16675 3.68048 4.16675 5.3776C4.16675 7.07473 5.65913 8.45052 7.50008 8.45052Z" stroke="#D1D1D1" stroke-linecap="round" stroke-linejoin="round"/>
<path d="M19.1667 16.1328V14.5963C19.1662 13.9155 18.9204 13.2541 18.4679 12.716C18.0154 12.1778 17.3819 11.7935 16.6667 11.6233" stroke="#D1D1D1" stroke-linecap="round" stroke-linejoin="round"/>
<path d="M13.3333 2.40454C14.0503 2.57378 14.6858 2.9582 15.1396 3.4972C15.5935 4.0362 15.8398 4.69911 15.8398 5.38143C15.8398 6.06375 15.5935 6.72666 15.1396 7.26566C14.6858 7.80465 14.0503 8.18908 13.3333 8.35832" stroke="#D1D1D1" stroke-linecap="round" stroke-linejoin="round"/>
</svg>
